<svg width="24" height="25" viewBox="0 0 24 25" fill="none" xmlns="http://www.w3.org/2000/svg">
<path d="M14 6.5C14.9203 6.5 15.8283 6.71171 16.6537 7.11876C17.4791 7.52581 18.1999 8.11729 18.7601 8.84743C19.3204 9.57758 19.7052 10.4268 19.8847 11.3295C20.0643 12.2321 20.0338 13.1639 19.7956 14.0529C19.5574 14.9419 19.1179 15.7641 18.511 16.4561C17.9042 17.148 17.1464 17.6911 16.2961 18.0433C15.4458 18.3955 14.5259 18.5473 13.6076 18.4872C12.6892 18.427 11.797 18.1563 11 17.6962" stroke="currentColor" stroke-width="2" stroke-linecap="round"/>
<path d="M7 19.5V5.5" stroke="currentColor" stroke-width="2"/>
<path d="M10 5.5V10C10 10.8284 9.32843 11.5 8.5 11.5V11.5C7.67157 11.5 7 10.8284 7 10V5.5" stroke="currentColor" stroke-width="2"/>
<path d="M4 5.5V10C4 10.8284 4.67157 11.5 5.5 11.5V11.5C6.32843 11.5 7 10.8284 7 10V5.5" stroke="currentColor" stroke-width="2"/>
</svg>
