<svg xmlns="http://www.w3.org/2000/svg" fill="none" viewBox="0 0 24 25"><path fill="currentColor" fill-rule="evenodd" d="M12 16.434c.16 0 .319.038.465.115l3.151 1.656-.601-3.508a1 1 0 0 1 .287-.886l2.549-2.484-3.523-.512a1 1 0 0 1-.753-.547L12 7.076l-1.575 3.192a1 1 0 0 1-.753.547l-3.523.512 2.549 2.484a1 1 0 0 1 .287.886l-.601 3.508 3.151-1.656a1 1 0 0 1 .465-.115m4.944 4.599a1 1 0 0 1-.465-.115L12 18.564l-4.479 2.354a1 1 0 0 1-1.451-1.054l.856-4.987-3.624-3.532a1 1 0 0 1 .554-1.706l5.008-.727 2.24-4.538c.335-.683 1.457-.683 1.792 0l2.24 4.538 5.008.727a1 1 0 0 1 .554 1.706l-3.624 3.532.856 4.987a1 1 0 0 1-.986 1.169" clip-rule="evenodd"/></svg>